<mxfile host="www.draw.io" modified="2020-02-14T08:47:42.431Z" agent="Mozilla/5.0 (Macintosh; Intel Mac OS X 10_13_6) AppleWebKit/537.36 (KHTML, like Gecko) Chrome/79.0.3945.130 Safari/537.36" etag="d-DZYpguz6qhkYP4LRnv" version="12.7.0" type="github">
  <diagram id="C5RBs43oDa-KdzZeNtuy" name="Page-1">
    <mxGraphModel dx="922" dy="585" grid="1" gridSize="10" guides="1" tooltips="1" connect="1" arrows="1" fold="1" page="1" pageScale="1" pageWidth="827" pageHeight="1169" math="0" shadow="0">
      <root>
        <mxCell id="WIyWlLk6GJQsqaUBKTNV-0"/>
        <mxCell id="WIyWlLk6GJQsqaUBKTNV-1" parent="WIyWlLk6GJQsqaUBKTNV-0"/>
        <mxCell id="i3HfilTDgKuyHDqdYd50-2" value="" style="edgeStyle=orthogonalEdgeStyle;rounded=0;orthogonalLoop=1;jettySize=auto;html=1;" edge="1" parent="WIyWlLk6GJQsqaUBKTNV-1" source="i3HfilTDgKuyHDqdYd50-0">
          <mxGeometry relative="1" as="geometry">
            <mxPoint x="180" y="220" as="targetPoint"/>
          </mxGeometry>
        </mxCell>
        <mxCell id="i3HfilTDgKuyHDqdYd50-0" value="Actor" style="shape=umlActor;verticalLabelPosition=bottom;labelBackgroundColor=#ffffff;verticalAlign=top;html=1;outlineConnect=0;" vertex="1" parent="WIyWlLk6GJQsqaUBKTNV-1">
          <mxGeometry x="70" y="190" width="30" height="60" as="geometry"/>
        </mxCell>
        <mxCell id="i3HfilTDgKuyHDqdYd50-5" value="" style="edgeStyle=orthogonalEdgeStyle;rounded=0;orthogonalLoop=1;jettySize=auto;html=1;" edge="1" parent="WIyWlLk6GJQsqaUBKTNV-1" source="i3HfilTDgKuyHDqdYd50-3" target="i3HfilTDgKuyHDqdYd50-4">
          <mxGeometry relative="1" as="geometry"/>
        </mxCell>
        <mxCell id="i3HfilTDgKuyHDqdYd50-3" value="1. 填部署参数" style="whiteSpace=wrap;html=1;aspect=fixed;" vertex="1" parent="WIyWlLk6GJQsqaUBKTNV-1">
          <mxGeometry x="180" y="180" width="80" height="80" as="geometry"/>
        </mxCell>
        <mxCell id="i3HfilTDgKuyHDqdYd50-7" value="" style="edgeStyle=orthogonalEdgeStyle;rounded=0;orthogonalLoop=1;jettySize=auto;html=1;" edge="1" parent="WIyWlLk6GJQsqaUBKTNV-1" source="i3HfilTDgKuyHDqdYd50-4" target="i3HfilTDgKuyHDqdYd50-6">
          <mxGeometry relative="1" as="geometry"/>
        </mxCell>
        <mxCell id="i3HfilTDgKuyHDqdYd50-4" value="2. 部署日志" style="whiteSpace=wrap;html=1;aspect=fixed;" vertex="1" parent="WIyWlLk6GJQsqaUBKTNV-1">
          <mxGeometry x="340" y="180" width="80" height="80" as="geometry"/>
        </mxCell>
        <mxCell id="i3HfilTDgKuyHDqdYd50-6" value="3. 发送部署结果" style="whiteSpace=wrap;html=1;aspect=fixed;" vertex="1" parent="WIyWlLk6GJQsqaUBKTNV-1">
          <mxGeometry x="500" y="180" width="80" height="80" as="geometry"/>
        </mxCell>
        <mxCell id="i3HfilTDgKuyHDqdYd50-10" value="" style="edgeStyle=orthogonalEdgeStyle;rounded=0;orthogonalLoop=1;jettySize=auto;html=1;" edge="1" parent="WIyWlLk6GJQsqaUBKTNV-1" source="i3HfilTDgKuyHDqdYd50-8" target="i3HfilTDgKuyHDqdYd50-9">
          <mxGeometry relative="1" as="geometry"/>
        </mxCell>
        <mxCell id="i3HfilTDgKuyHDqdYd50-8" value="1. 通过接口/SDK申请机器并开机" style="rounded=0;whiteSpace=wrap;html=1;" vertex="1" parent="WIyWlLk6GJQsqaUBKTNV-1">
          <mxGeometry x="30" y="360" width="110" height="130" as="geometry"/>
        </mxCell>
        <mxCell id="i3HfilTDgKuyHDqdYd50-12" value="" style="edgeStyle=orthogonalEdgeStyle;rounded=0;orthogonalLoop=1;jettySize=auto;html=1;" edge="1" parent="WIyWlLk6GJQsqaUBKTNV-1" source="i3HfilTDgKuyHDqdYd50-9" target="i3HfilTDgKuyHDqdYd50-11">
          <mxGeometry relative="1" as="geometry"/>
        </mxCell>
        <mxCell id="i3HfilTDgKuyHDqdYd50-9" value="2. 配置磁盘等环境" style="rounded=0;whiteSpace=wrap;html=1;" vertex="1" parent="WIyWlLk6GJQsqaUBKTNV-1">
          <mxGeometry x="220" y="360" width="110" height="130" as="geometry"/>
        </mxCell>
        <mxCell id="i3HfilTDgKuyHDqdYd50-14" value="" style="edgeStyle=orthogonalEdgeStyle;rounded=0;orthogonalLoop=1;jettySize=auto;html=1;" edge="1" parent="WIyWlLk6GJQsqaUBKTNV-1" source="i3HfilTDgKuyHDqdYd50-11" target="i3HfilTDgKuyHDqdYd50-13">
          <mxGeometry relative="1" as="geometry"/>
        </mxCell>
        <mxCell id="i3HfilTDgKuyHDqdYd50-11" value="3. 部署前检查" style="rounded=0;whiteSpace=wrap;html=1;" vertex="1" parent="WIyWlLk6GJQsqaUBKTNV-1">
          <mxGeometry x="410" y="360" width="110" height="130" as="geometry"/>
        </mxCell>
        <mxCell id="i3HfilTDgKuyHDqdYd50-16" value="" style="edgeStyle=orthogonalEdgeStyle;rounded=0;orthogonalLoop=1;jettySize=auto;html=1;" edge="1" parent="WIyWlLk6GJQsqaUBKTNV-1" source="i3HfilTDgKuyHDqdYd50-13" target="i3HfilTDgKuyHDqdYd50-15">
          <mxGeometry relative="1" as="geometry"/>
        </mxCell>
        <mxCell id="i3HfilTDgKuyHDqdYd50-13" value="4. 生成部署的配置文件" style="rounded=0;whiteSpace=wrap;html=1;" vertex="1" parent="WIyWlLk6GJQsqaUBKTNV-1">
          <mxGeometry x="600" y="360" width="110" height="130" as="geometry"/>
        </mxCell>
        <mxCell id="i3HfilTDgKuyHDqdYd50-15" value="5. 记录日志并反馈" style="rounded=0;whiteSpace=wrap;html=1;" vertex="1" parent="WIyWlLk6GJQsqaUBKTNV-1">
          <mxGeometry x="600" y="570" width="110" height="130" as="geometry"/>
        </mxCell>
      </root>
    </mxGraphModel>
  </diagram>
</mxfile>
